<svg version="1.1" id="Layer_1" xmlns="http://www.w3.org/2000/svg" xmlns:xlink="http://www.w3.org/1999/xlink" x="0px" y="0px"
	 width="100%" viewBox="0 0 1024 973" enable-background="new 0 0 1024 973" xml:space="preserve">
<path fill="#FEFEFE" opacity="1.000000" stroke="none" 
	d="
M480.000000,974.000000 
	C320.000000,974.000000 160.500000,974.000000 1.000000,974.000000 
	C1.000000,649.666687 1.000000,325.333344 1.000000,1.000000 
	C342.333344,1.000000 683.666687,1.000000 1025.000000,1.000000 
	C1025.000000,325.333344 1025.000000,649.666687 1025.000000,974.000000 
	C843.500000,974.000000 662.000000,974.000000 480.000000,974.000000 
M322.955109,387.981415 
	C328.997650,387.958801 335.040222,387.936188 342.009277,387.925323 
	C348.702850,387.902100 355.396393,387.878876 362.982697,387.919739 
	C365.701263,387.959869 368.419800,387.999969 371.079254,388.778656 
	C369.433441,392.725555 367.787628,396.672455 365.958008,401.060211 
	C373.453491,401.060211 380.436584,401.209290 387.402496,400.929962 
	C388.738678,400.876373 390.581726,399.417725 391.208923,398.129272 
	C394.118958,392.151276 396.596039,385.963715 399.441437,379.952148 
	C400.041992,378.683319 401.511902,376.970245 402.625916,376.936523 
	C411.003448,376.682770 419.392151,376.798218 427.972321,376.798218 
	C421.195129,393.176514 414.667603,408.793152 408.289276,424.470490 
	C406.569336,428.698090 403.300537,430.116943 399.226135,430.123932 
	C394.838654,430.131470 392.058746,432.115204 389.402679,435.589325 
	C384.355408,442.191071 378.664154,448.299866 373.258850,454.629181 
	C372.489227,455.530365 371.823059,456.519897 370.534973,458.231262 
	C456.434418,456.164368 525.368774,422.452179 579.321289,355.024445 
	C576.334961,355.024445 574.896484,354.986084 573.460571,355.030060 
	C535.983398,356.177948 498.367645,352.265594 460.791382,357.961029 
	C463.974976,350.797455 467.178497,343.589081 470.638275,335.804138 
	C462.941833,335.804138 455.982910,335.670044 449.039001,335.933044 
	C447.849060,335.978088 446.248810,337.485077 445.648560,338.712921 
	C442.800232,344.539429 440.306274,350.538513 437.501373,356.387543 
	C436.955658,357.525574 435.608887,359.046936 434.597443,359.073120 
	C426.233002,359.289612 417.860535,359.195648 409.033234,359.195648 
	C412.571442,351.048676 415.772339,343.678314 419.147614,335.906525 
	C415.972351,335.906525 413.422211,336.259399 411.002899,335.846130 
	C399.855133,333.941803 391.691345,336.832886 388.346313,349.007233 
	C388.183472,349.302917 388.020599,349.598633 387.997192,349.926392 
	C387.997192,349.926392 387.872223,349.856628 386.952667,349.801453 
	C375.338867,349.922180 363.725037,350.042908 351.169739,349.976318 
	C343.803009,350.008850 336.436279,350.041351 328.126312,349.995758 
	C320.423279,349.999786 312.720276,350.003815 304.090851,349.999420 
	C301.430176,350.001160 298.753845,349.836517 296.116333,350.084564 
	C295.024139,350.187286 293.557953,350.908936 293.041656,351.800629 
	C289.482452,357.947784 292.249084,362.999603 299.025909,363.002380 
	C301.021423,363.003204 303.016907,362.997101 305.948151,362.983521 
	C313.986572,362.967133 322.024994,362.950775 330.988495,362.945282 
	C338.017487,362.927948 345.046448,362.910645 353.002197,362.938446 
	C362.758118,362.962769 372.514038,362.987091 382.305511,363.776062 
	C380.563751,367.529449 378.821991,371.282806 376.142609,374.923279 
	C371.771362,374.961578 367.400146,374.999878 362.097351,374.891113 
	C355.068634,374.931122 348.039886,374.971100 340.073395,374.958527 
	C333.713226,374.971527 327.353027,374.984558 320.072266,374.996094 
	C316.832275,374.996094 313.592316,374.996094 310.457794,374.996094 
	C310.068420,377.541016 309.850800,379.179626 309.562897,380.805786 
	C308.594482,386.276733 309.996033,387.983398 315.524567,388.000488 
	C317.690094,388.007172 319.855652,387.994232 322.955109,387.981415 
M370.344055,465.698578 
	C359.474243,464.462616 348.468719,463.913544 337.772125,461.800598 
	C326.719940,459.617401 315.759491,456.498322 305.144653,452.708252 
	C295.025391,449.095093 285.403503,444.088928 275.562988,439.695129 
	C275.353607,440.141876 275.144257,440.588623 274.934875,441.035370 
	C285.323578,446.910614 295.468842,453.279022 306.154175,458.553223 
	C325.364380,468.035217 345.650787,474.360260 367.714996,477.318420 
	C401.285339,483.014282 434.820465,481.870544 468.086151,475.506104 
	C551.908936,459.469055 616.609619,414.288849 664.843750,344.657593 
	C672.389465,333.764557 678.948120,322.187836 686.184143,310.572723 
	C691.981445,314.503418 697.940063,318.543457 704.574585,323.041779 
	C700.790710,298.691010 697.150085,275.262238 693.394104,251.091232 
	C670.911011,262.355286 649.223267,273.220947 626.924866,284.392517 
	C635.008240,287.044189 642.221863,289.410553 650.422241,292.100616 
	C643.479309,303.287842 637.076965,313.777802 630.404907,324.093323 
	C629.716064,325.158325 627.421021,325.607025 625.868774,325.612366 
	C621.056824,325.629028 616.183228,324.744476 611.449890,325.265808 
	C607.553711,325.694946 605.382019,324.415131 603.086487,321.607086 
	C584.701355,299.117249 561.553284,284.484924 532.681335,279.505676 
	C528.569397,278.796539 524.410767,278.357727 519.323486,277.664276 
	C533.967102,312.260437 562.735718,326.170166 595.433228,335.282593 
	C587.812134,347.721191 584.896606,360.615723 585.931641,374.490417 
	C586.040161,375.944702 584.802551,377.881104 583.623413,378.994171 
	C550.651611,410.118042 513.189026,434.019470 470.407043,449.424805 
	C438.259583,461.000732 405.146881,466.527313 370.344055,465.698578 
M690.953735,577.514648 
	C690.953735,573.442139 690.953735,569.369629 690.953735,565.448792 
	C684.835388,565.448792 679.570007,565.448792 674.206360,565.448792 
	C674.074646,567.658020 673.961121,569.561951 673.836243,571.656189 
	C658.790161,560.980469 642.667542,561.523743 632.183533,572.831299 
	C622.207397,583.591064 621.774902,601.391968 631.242004,612.690063 
	C635.704956,618.016174 641.439026,621.063416 648.280029,622.189392 
	C657.487244,623.704834 665.662659,621.578674 672.734192,615.016724 
	C674.052795,627.200989 668.523071,634.289001 657.022156,633.687134 
	C649.682861,633.303040 642.467468,630.551270 634.606995,628.724060 
	C633.074402,631.696838 630.902771,635.908997 628.778015,640.030273 
	C636.327698,646.014648 647.324036,648.827271 659.874939,648.196594 
	C679.632935,647.203674 690.753967,635.730896 690.934631,615.959534 
	C691.048706,603.477600 690.954285,590.993835 690.953735,577.514648 
M289.463501,578.114563 
	C280.542267,578.114563 271.621063,578.114563 262.095001,578.114563 
	C262.095001,567.688477 262.095001,557.960815 262.095001,548.185669 
	C255.721497,548.185669 249.974258,548.185669 244.222839,548.185669 
	C244.222839,573.986938 244.222839,599.511414 244.222839,624.902649 
	C250.399277,624.902649 256.148132,624.902649 262.400940,624.902649 
	C262.400940,614.475586 262.400940,604.394104 262.400940,594.181213 
	C274.360535,594.181213 285.800262,594.181213 297.919952,594.181213 
	C297.919952,604.596985 297.919952,614.820312 297.919952,624.903381 
	C304.346222,624.903381 310.086182,624.903381 315.887329,624.903381 
	C315.887329,599.114075 315.887329,573.716431 315.887329,548.177185 
	C309.686920,548.177185 303.788055,548.177185 297.361877,548.177185 
	C297.361877,558.195007 297.361877,567.936340 297.361877,578.119202 
	C294.710052,578.119202 292.583069,578.119202 289.463501,578.114563 
M474.245697,598.967163 
	C474.207672,596.475281 474.330078,593.968811 474.105865,591.493774 
	C472.492126,573.680237 459.150818,562.147583 441.564606,564.196289 
	C436.248413,564.815613 431.210083,567.820496 426.010468,569.745178 
	C425.820038,568.833740 425.435364,566.992676 425.108154,565.426636 
	C419.201385,565.426636 413.787292,565.426636 408.402893,565.426636 
	C408.402893,592.555359 408.402893,619.286560 408.402893,646.174805 
	C414.459991,646.174805 420.195007,646.174805 426.297577,646.174805 
	C426.297577,637.179260 426.297577,628.467468 426.297577,619.423035 
	C442.726379,634.755188 471.837128,624.877563 474.245697,598.967163 
M592.516418,436.063568 
	C584.955933,441.028046 577.395508,445.992523 570.132263,450.761780 
	C578.641968,453.564941 587.341309,455.787079 595.487427,459.294189 
	C603.696472,462.828339 611.351257,467.647614 619.263000,471.877411 
	C620.122864,472.337097 621.072998,472.929565 621.986816,472.939301 
	C629.873108,473.023285 637.760559,472.987579 646.940613,472.987579 
	C632.216614,458.752777 618.551941,445.424469 600.033264,436.032288 
	C618.367432,433.407410 634.846069,433.972260 649.227966,443.781036 
	C658.854675,450.346680 668.786377,446.907318 679.642273,448.261932 
	C664.601135,430.174561 647.844299,417.000305 625.919495,411.613647 
	C624.145630,411.177795 621.465942,412.079376 619.958801,413.292969 
	C610.887329,420.597809 602.035400,428.175171 592.516418,436.063568 
M341.316528,570.771179 
	C330.032684,580.196167 326.889648,592.339172 331.269501,605.861816 
	C335.668823,619.444641 346.535217,625.432495 360.244354,626.647766 
	C377.308472,628.160645 392.406891,617.685913 395.602936,602.283936 
	C398.973846,586.039185 390.700653,570.619873 375.220551,565.693909 
	C363.588776,561.992493 352.189484,563.019409 341.316528,570.771179 
M592.569763,564.813293 
	C578.134521,562.231567 565.127625,564.585388 556.071350,577.152893 
	C549.013611,586.947021 548.326477,598.077820 553.316895,608.924316 
	C558.701843,620.628296 568.869934,625.728760 581.392456,626.546143 
	C599.106934,627.702454 613.321655,617.159912 616.390381,600.635437 
	C619.452087,584.147949 610.546875,570.338196 592.569763,564.813293 
M789.112793,576.670776 
	C791.678467,572.953735 794.244141,569.236694 797.154541,565.020325 
	C791.369324,565.020325 786.518921,564.735107 781.731323,565.158813 
	C779.779419,565.331604 777.412048,566.602356 776.190125,568.135742 
	C772.647278,572.581848 769.589172,577.414246 766.083435,582.465881 
	C762.406982,577.186340 759.256653,572.498047 755.904480,567.958862 
	C755.014893,566.754272 753.543396,565.245483 752.273132,565.181335 
	C746.415405,564.885620 740.534363,565.050964 733.645569,565.050964 
	C740.021667,573.934875 745.430176,582.115234 751.543579,589.729736 
	C754.835693,593.830200 754.980469,596.501160 751.517700,600.600647 
	C745.048462,608.259705 739.266663,616.499390 732.640076,625.233948 
	C738.990845,625.233948 744.304504,625.466858 749.577515,625.105591 
	C751.384277,624.981812 753.629517,623.790833 754.741943,622.361694 
	C758.497253,617.536804 761.834045,612.386169 765.713074,606.810669 
	C769.485168,612.271301 772.894104,617.362488 776.498047,622.311707 
	C777.380859,623.524048 778.863220,625.038391 780.135742,625.102234 
	C786.040344,625.398438 791.968140,625.233276 798.788208,625.233276 
	C791.705322,615.557190 785.323853,606.642639 778.696411,597.914917 
	C776.896423,595.544556 776.579590,593.918091 778.523254,591.450439 
	C782.121765,586.881470 785.338867,582.011963 789.112793,576.670776 
M541.178650,625.504150 
	C542.780396,625.429932 544.382202,625.355652 545.985596,625.281311 
	C545.985596,620.013428 545.985596,615.123901 545.985596,609.779907 
	C532.727722,609.779907 519.809753,609.779907 506.444641,609.779907 
	C506.444641,589.033325 506.444641,568.743042 506.444641,548.346313 
	C500.091919,548.346313 494.205811,548.346313 488.201782,548.346313 
	C488.201782,574.106750 488.201782,599.531128 488.201782,625.505676 
	C505.670593,625.505676 522.957214,625.505676 541.178650,625.504150 
M610.600525,297.877380 
	C597.670654,278.250763 578.900330,267.431763 556.294861,261.867310 
	C558.078735,268.803925 560.391724,275.309570 562.906311,281.736328 
	C563.331909,282.823914 564.461731,283.945160 565.543213,284.420410 
	C582.113281,291.702057 594.996216,303.556152 606.596130,317.081055 
	C607.642456,318.300995 609.413269,319.465271 610.936829,319.593231 
	C614.158386,319.863831 617.439026,319.431732 621.683533,319.244202 
	C617.926514,311.962128 614.452148,305.228027 610.600525,297.877380 
M510.563782,504.176941 
	C510.044739,505.301422 509.525726,506.425903 508.842285,507.906555 
	C517.450745,507.174347 525.503357,506.489441 533.825256,505.781647 
	C534.071167,509.356995 534.275696,512.330383 534.538696,516.155151 
	C543.923706,507.568024 552.439941,499.775787 561.373108,491.602112 
	C551.516235,484.767334 542.239014,478.334564 532.211731,471.381653 
	C532.211731,475.321320 532.211731,477.938995 532.211731,480.864075 
	C523.890747,481.686676 515.758545,482.490631 506.997070,483.356781 
	C510.587433,487.391113 513.643860,490.825470 516.632751,494.184021 
	C514.576111,497.564758 512.763672,500.543884 510.563782,504.176941 
M484.102875,486.458405 
	C481.248810,484.678589 478.394714,482.898773 474.837036,480.680206 
	C474.837036,484.371674 474.837036,486.975891 474.837036,490.597870 
	C460.576141,490.597870 446.627716,490.597870 431.622375,490.597870 
	C434.305298,494.058044 436.085297,496.353729 437.803802,498.570099 
	C436.066071,500.773651 434.546021,502.701202 432.211945,505.660980 
	C447.270813,505.660980 461.258118,505.660980 475.280396,505.660980 
	C475.569672,509.077820 475.790466,511.685577 476.057648,514.841125 
	C484.218414,508.700012 491.937103,502.891602 500.078644,496.764954 
	C494.463928,493.144806 489.587036,490.000366 484.102875,486.458405 
M724.819336,593.500000 
	C724.819336,584.222046 724.819336,574.944153 724.819336,565.422974 
	C718.690857,565.422974 713.131287,565.422974 707.305359,565.422974 
	C707.305359,585.368469 707.305359,605.091553 707.305359,624.821716 
	C713.198242,624.821716 718.900757,624.821716 724.821594,624.821716 
	C724.821594,614.460388 724.821594,604.480164 724.819336,593.500000 
M644.618958,388.095306 
	C641.132629,391.948090 637.646301,395.800842 633.804626,400.046356 
	C656.109253,398.266907 670.058289,381.205383 663.140808,365.190613 
	C657.139954,372.616364 651.106262,380.082733 644.618958,388.095306 
M724.267395,541.255615 
	C721.554443,540.189758 718.911255,538.507385 716.113586,538.191223 
	C710.882202,537.599915 706.511414,540.641541 705.324219,545.138184 
	C704.203491,549.383179 705.347717,553.101196 708.973755,555.717957 
	C713.219482,558.781982 720.239563,558.350708 723.865173,554.994995 
	C727.398254,551.724915 727.704407,547.316040 724.267395,541.255615 
M413.202087,501.854645 
	C416.012878,500.619019 418.823639,499.383392 421.843048,498.056061 
	C414.678619,488.812012 405.023804,492.346985 397.812469,490.252197 
	C397.538239,493.854645 397.314667,496.791809 397.054199,500.213379 
	C401.533386,500.661926 406.943146,501.203674 413.202087,501.854645 
M372.114380,494.142059 
	C373.843933,495.111389 375.573486,496.080719 378.246124,497.578583 
	C380.209015,496.826721 383.389862,495.608337 385.965271,494.621887 
	C383.655304,491.992737 381.401154,489.427094 379.314514,487.052124 
	C374.309326,492.064636 368.870453,486.402252 363.500275,487.525177 
	C363.295380,488.949341 363.072937,490.495575 362.829468,492.187866 
	C365.784882,492.814636 368.539551,493.398834 372.114380,494.142059 
M350.216766,487.951324 
	C353.454620,486.149200 351.801117,484.882751 349.632111,484.076599 
	C347.663086,483.344757 345.529083,483.056824 342.924988,482.445831 
	C342.862305,487.552704 347.219666,486.607880 350.216766,487.951324 
z"/>
<path fill="#049CD9" opacity="1.000000" stroke="none" 
	d="
M371.002075,465.988312 
	C405.146881,466.527313 438.259583,461.000732 470.407043,449.424805 
	C513.189026,434.019470 550.651611,410.118042 583.623413,378.994171 
	C584.802551,377.881104 586.040161,375.944702 585.931641,374.490417 
	C584.896606,360.615723 587.812134,347.721191 595.433228,335.282593 
	C562.735718,326.170166 533.967102,312.260437 519.323486,277.664276 
	C524.410767,278.357727 528.569397,278.796539 532.681335,279.505676 
	C561.553284,284.484924 584.701355,299.117249 603.086487,321.607086 
	C605.382019,324.415131 607.553711,325.694946 611.449890,325.265808 
	C616.183228,324.744476 621.056824,325.629028 625.868774,325.612366 
	C627.421021,325.607025 629.716064,325.158325 630.404907,324.093323 
	C637.076965,313.777802 643.479309,303.287842 650.422241,292.100616 
	C642.221863,289.410553 635.008240,287.044189 626.924866,284.392517 
	C649.223267,273.220947 670.911011,262.355286 693.394104,251.091232 
	C697.150085,275.262238 700.790710,298.691010 704.574585,323.041779 
	C697.940063,318.543457 691.981445,314.503418 686.184143,310.572723 
	C678.948120,322.187836 672.389465,333.764557 664.843750,344.657593 
	C616.609619,414.288849 551.908936,459.469055 468.086151,475.506104 
	C434.820465,481.870544 401.285339,483.014282 367.394531,476.791077 
	C368.383392,472.838593 369.692719,469.413452 371.002075,465.988312 
z"/>
<path fill="#074786" opacity="1.000000" stroke="none" 
	d="
M388.879913,348.918579 
	C391.691345,336.832886 399.855133,333.941803 411.002899,335.846130 
	C413.422211,336.259399 415.972351,335.906525 419.147614,335.906525 
	C415.772339,343.678314 412.571442,351.048676 409.033234,359.195648 
	C417.860535,359.195648 426.233002,359.289612 434.597443,359.073120 
	C435.608887,359.046936 436.955658,357.525574 437.501373,356.387543 
	C440.306274,350.538513 442.800232,344.539429 445.648560,338.712921 
	C446.248810,337.485077 447.849060,335.978088 449.039001,335.933044 
	C455.982910,335.670044 462.941833,335.804138 470.638275,335.804138 
	C467.178497,343.589081 463.974976,350.797455 460.791382,357.961029 
	C498.367645,352.265594 535.983398,356.177948 573.460571,355.030060 
	C574.896484,354.986084 576.334961,355.024445 579.321289,355.024445 
	C525.368774,422.452179 456.434418,456.164368 370.534973,458.231262 
	C371.823059,456.519897 372.489227,455.530365 373.258850,454.629181 
	C378.664154,448.299866 384.355408,442.191071 389.402679,435.589325 
	C392.058746,432.115204 394.838654,430.131470 399.226135,430.123932 
	C403.300537,430.116943 406.569336,428.698090 408.289276,424.470490 
	C414.667603,408.793152 421.195129,393.176514 427.972321,376.798218 
	C419.392151,376.798218 411.003448,376.682770 402.625916,376.936523 
	C401.511902,376.970245 400.041992,378.683319 399.441437,379.952148 
	C396.596039,385.963715 394.118958,392.151276 391.208923,398.129272 
	C390.581726,399.417725 388.738678,400.876373 387.402496,400.929962 
	C380.436584,401.209290 373.453491,401.060211 365.958008,401.060211 
	C367.787628,396.672455 369.433441,392.725555 371.385559,388.203125 
	C373.488007,383.430450 375.284119,379.233337 377.080261,375.036194 
	C378.821991,371.282806 380.563751,367.529449 382.570435,363.218628 
	C384.514343,358.392975 386.193268,354.124817 387.872223,349.856628 
	C387.872223,349.856628 387.997192,349.926392 388.167664,349.835571 
	C388.518738,349.469391 388.699341,349.193970 388.879913,348.918579 
z"/>
<path fill="#0B4989" opacity="1.000000" stroke="none" 
	d="
M690.953552,578.012756 
	C690.954285,590.993835 691.048706,603.477600 690.934631,615.959534 
	C690.753967,635.730896 679.632935,647.203674 659.874939,648.196594 
	C647.324036,648.827271 636.327698,646.014648 628.778015,640.030273 
	C630.902771,635.908997 633.074402,631.696838 634.606995,628.724060 
	C642.467468,630.551270 649.682861,633.303040 657.022156,633.687134 
	C668.523071,634.289001 674.052795,627.200989 672.734192,615.016724 
	C665.662659,621.578674 657.487244,623.704834 648.280029,622.189392 
	C641.439026,621.063416 635.704956,618.016174 631.242004,612.690063 
	C621.774902,601.391968 622.207397,583.591064 632.183533,572.831299 
	C642.667542,561.523743 658.790161,560.980469 673.836243,571.656189 
	C673.961121,569.561951 674.074646,567.658020 674.206360,565.448792 
	C679.570007,565.448792 684.835388,565.448792 690.953735,565.448792 
	C690.953735,569.369629 690.953735,573.442139 690.953552,578.012756 
M657.576355,608.193909 
	C667.333862,607.712402 673.298950,602.355652 673.415283,593.970215 
	C673.535339,585.320129 667.695435,579.149780 659.060547,578.803406 
	C650.244873,578.449768 643.719604,583.608765 642.933960,591.553345 
	C642.026794,600.725952 646.995483,606.712769 657.576355,608.193909 
z"/>
<path fill="#079EDB" opacity="1.000000" stroke="none" 
	d="
M289.959778,578.116882 
	C292.583069,578.119202 294.710052,578.119202 297.361877,578.119202 
	C297.361877,567.936340 297.361877,558.195007 297.361877,548.177185 
	C303.788055,548.177185 309.686920,548.177185 315.887329,548.177185 
	C315.887329,573.716431 315.887329,599.114075 315.887329,624.903381 
	C310.086182,624.903381 304.346222,624.903381 297.919952,624.903381 
	C297.919952,614.820312 297.919952,604.596985 297.919952,594.181213 
	C285.800262,594.181213 274.360535,594.181213 262.400940,594.181213 
	C262.400940,604.394104 262.400940,614.475586 262.400940,624.902649 
	C256.148132,624.902649 250.399277,624.902649 244.222839,624.902649 
	C244.222839,599.511414 244.222839,573.986938 244.222839,548.185669 
	C249.974258,548.185669 255.721497,548.185669 262.095001,548.185669 
	C262.095001,557.960815 262.095001,567.688477 262.095001,578.114563 
	C271.621063,578.114563 280.542267,578.114563 289.959778,578.116882 
z"/>
<path fill="#079EDB" opacity="1.000000" stroke="none" 
	d="
M474.202087,599.388428 
	C471.837128,624.877563 442.726379,634.755188 426.297577,619.423035 
	C426.297577,628.467468 426.297577,637.179260 426.297577,646.174805 
	C420.195007,646.174805 414.459991,646.174805 408.402893,646.174805 
	C408.402893,619.286560 408.402893,592.555359 408.402893,565.426636 
	C413.787292,565.426636 419.201385,565.426636 425.108154,565.426636 
	C425.435364,566.992676 425.820038,568.833740 426.010468,569.745178 
	C431.210083,567.820496 436.248413,564.815613 441.564606,564.196289 
	C459.150818,562.147583 472.492126,573.680237 474.105865,591.493774 
	C474.330078,593.968811 474.207672,596.475281 474.202087,599.388428 
M448.775177,609.513672 
	C456.623383,603.456543 458.493256,593.062927 453.155151,585.167664 
	C447.851227,577.322937 435.760284,576.666199 429.842468,583.901367 
	C425.002808,589.818420 424.756042,599.528564 429.285156,605.834106 
	C433.311249,611.439331 440.148285,612.909790 448.775177,609.513672 
z"/>
<path fill="#094989" opacity="1.000000" stroke="none" 
	d="
M592.813232,435.862427 
	C602.035400,428.175171 610.887329,420.597809 619.958801,413.292969 
	C621.465942,412.079376 624.145630,411.177795 625.919495,411.613647 
	C647.844299,417.000305 664.601135,430.174561 679.642273,448.261932 
	C668.786377,446.907318 658.854675,450.346680 649.227966,443.781036 
	C634.846069,433.972260 618.367432,433.407410 600.033264,436.032288 
	C618.551941,445.424469 632.216614,458.752777 646.940613,472.987579 
	C637.760559,472.987579 629.873108,473.023285 621.986816,472.939301 
	C621.072998,472.929565 620.122864,472.337097 619.263000,471.877411 
	C611.351257,467.647614 603.696472,462.828339 595.487427,459.294189 
	C587.341309,455.787079 578.641968,453.564941 570.132263,450.761780 
	C577.395508,445.992523 584.955933,441.028046 592.813232,435.862427 
z"/>
<path fill="#079EDB" opacity="1.000000" stroke="none" 
	d="
M341.595215,570.545410 
	C352.189484,563.019409 363.588776,561.992493 375.220551,565.693909 
	C390.700653,570.619873 398.973846,586.039185 395.602936,602.283936 
	C392.406891,617.685913 377.308472,628.160645 360.244354,626.647766 
	C346.535217,625.432495 335.668823,619.444641 331.269501,605.861816 
	C326.889648,592.339172 330.032684,580.196167 341.595215,570.545410 
M377.641479,591.292358 
	C374.748413,581.434509 367.245148,576.743713 358.637085,579.411438 
	C350.062073,582.068909 345.730103,592.355957 349.097839,602.064148 
	C351.872833,610.063782 360.509979,613.890137 368.577271,610.693726 
	C375.277130,608.039001 378.365356,601.821106 377.641479,591.292358 
z"/>
<path fill="#0B4989" opacity="1.000000" stroke="none" 
	d="
M592.982849,564.894897 
	C610.546875,570.338196 619.452087,584.147949 616.390381,600.635437 
	C613.321655,617.159912 599.106934,627.702454 581.392456,626.546143 
	C568.869934,625.728760 558.701843,620.628296 553.316895,608.924316 
	C548.326477,598.077820 549.013611,586.947021 556.071350,577.152893 
	C565.127625,564.585388 578.134521,562.231567 592.982849,564.894897 
M578.632751,579.658203 
	C577.322205,580.368591 575.861572,580.894897 574.726318,581.820312 
	C568.901978,586.568176 567.677185,592.913696 569.082458,599.870605 
	C570.306213,605.928955 573.949402,610.048706 580.143066,611.401367 
	C585.969543,612.673767 591.092957,611.226196 594.957336,606.534790 
	C599.318848,601.239990 599.950500,592.321777 596.594238,586.237549 
	C593.321533,580.304810 587.914795,578.138306 578.632751,579.658203 
z"/>
<path fill="#0B4989" opacity="1.000000" stroke="none" 
	d="
M788.913818,576.969238 
	C785.338867,582.011963 782.121765,586.881470 778.523254,591.450439 
	C776.579590,593.918091 776.896423,595.544556 778.696411,597.914917 
	C785.323853,606.642639 791.705322,615.557190 798.788208,625.233276 
	C791.968140,625.233276 786.040344,625.398438 780.135742,625.102234 
	C778.863220,625.038391 777.380859,623.524048 776.498047,622.311707 
	C772.894104,617.362488 769.485168,612.271301 765.713074,606.810669 
	C761.834045,612.386169 758.497253,617.536804 754.741943,622.361694 
	C753.629517,623.790833 751.384277,624.981812 749.577515,625.105591 
	C744.304504,625.466858 738.990845,625.233948 732.640076,625.233948 
	C739.266663,616.499390 745.048462,608.259705 751.517700,600.600647 
	C754.980469,596.501160 754.835693,593.830200 751.543579,589.729736 
	C745.430176,582.115234 740.021667,573.934875 733.645569,565.050964 
	C740.534363,565.050964 746.415405,564.885620 752.273132,565.181335 
	C753.543396,565.245483 755.014893,566.754272 755.904480,567.958862 
	C759.256653,572.498047 762.406982,577.186340 766.083435,582.465881 
	C769.589172,577.414246 772.647278,572.581848 776.190125,568.135742 
	C777.412048,566.602356 779.779419,565.331604 781.731323,565.158813 
	C786.518921,564.735107 791.369324,565.020325 797.154541,565.020325 
	C794.244141,569.236694 791.678467,572.953735 788.913818,576.969238 
z"/>
<path fill="#094989" opacity="1.000000" stroke="none" 
	d="
M540.711182,625.504883 
	C522.957214,625.505676 505.670593,625.505676 488.201782,625.505676 
	C488.201782,599.531128 488.201782,574.106750 488.201782,548.346313 
	C494.205811,548.346313 500.091919,548.346313 506.444641,548.346313 
	C506.444641,568.743042 506.444641,589.033325 506.444641,609.779907 
	C519.809753,609.779907 532.727722,609.779907 545.985596,609.779907 
	C545.985596,615.123901 545.985596,620.013428 545.985596,625.281311 
	C544.382202,625.355652 542.780396,625.429932 540.711182,625.504883 
z"/>
<path fill="#094989" opacity="1.000000" stroke="none" 
	d="
M610.789185,298.185669 
	C614.452148,305.228027 617.926514,311.962128 621.683533,319.244202 
	C617.439026,319.431732 614.158386,319.863831 610.936829,319.593231 
	C609.413269,319.465271 607.642456,318.300995 606.596130,317.081055 
	C594.996216,303.556152 582.113281,291.702057 565.543213,284.420410 
	C564.461731,283.945160 563.331909,282.823914 562.906311,281.736328 
	C560.391724,275.309570 558.078735,268.803925 556.294861,261.867310 
	C578.900330,267.431763 597.670654,278.250763 610.789185,298.185669 
z"/>
<path fill="#079EDB" opacity="1.000000" stroke="none" 
	d="
M510.757568,503.849976 
	C512.763672,500.543884 514.576111,497.564758 516.632751,494.184021 
	C513.643860,490.825470 510.587433,487.391113 506.997070,483.356781 
	C515.758545,482.490631 523.890747,481.686676 532.211731,480.864075 
	C532.211731,477.938995 532.211731,475.321320 532.211731,471.381653 
	C542.239014,478.334564 551.516235,484.767334 561.373108,491.602112 
	C552.439941,499.775787 543.923706,507.568024 534.538696,516.155151 
	C534.275696,512.330383 534.071167,509.356995 533.825256,505.781647 
	C525.503357,506.489441 517.450745,507.174347 508.842285,507.906555 
	C509.525726,506.425903 510.044739,505.301422 510.757568,503.849976 
z"/>
<path fill="#079EDB" opacity="1.000000" stroke="none" 
	d="
M484.406525,486.657166 
	C489.587036,490.000366 494.463928,493.144806 500.078644,496.764954 
	C491.937103,502.891602 484.218414,508.700012 476.057648,514.841125 
	C475.790466,511.685577 475.569672,509.077820 475.280396,505.660980 
	C461.258118,505.660980 447.270813,505.660980 432.211945,505.660980 
	C434.546021,502.701202 436.066071,500.773651 437.803802,498.570099 
	C436.085297,496.353729 434.305298,494.058044 431.622375,490.597870 
	C446.627716,490.597870 460.576141,490.597870 474.837036,490.597870 
	C474.837036,486.975891 474.837036,484.371674 474.837036,480.680206 
	C478.394714,482.898773 481.248810,484.678589 484.406525,486.657166 
z"/>
<path fill="#0B4989" opacity="1.000000" stroke="none" 
	d="
M724.820435,594.000000 
	C724.821594,604.480164 724.821594,614.460388 724.821594,624.821716 
	C718.900757,624.821716 713.198242,624.821716 707.305359,624.821716 
	C707.305359,605.091553 707.305359,585.368469 707.305359,565.422974 
	C713.131287,565.422974 718.690857,565.422974 724.819336,565.422974 
	C724.819336,574.944153 724.819336,584.222046 724.820435,594.000000 
z"/>
<path fill="#079EDB" opacity="1.000000" stroke="none" 
	d="
M370.673065,465.843445 
	C369.692719,469.413452 368.383392,472.838593 367.036530,476.621643 
	C345.650787,474.360260 325.364380,468.035217 306.154175,458.553223 
	C295.468842,453.279022 285.323578,446.910614 274.934875,441.035370 
	C275.144257,440.588623 275.353607,440.141876 275.562988,439.695129 
	C285.403503,444.088928 295.025391,449.095093 305.144653,452.708252 
	C315.759491,456.498322 326.719940,459.617401 337.772125,461.800598 
	C348.468719,463.913544 359.474243,464.462616 370.673065,465.843445 
z"/>
<path fill="#4FAADB" opacity="1.000000" stroke="none" 
	d="
M387.412445,349.829041 
	C386.193268,354.124817 384.514343,358.392975 382.552673,362.836304 
	C372.514038,362.987091 362.758118,362.962769 352.519775,362.463196 
	C352.061981,358.046478 352.086609,354.105072 352.111237,350.163635 
	C363.725037,350.042908 375.338867,349.922180 387.412445,349.829041 
z"/>
<path fill="#0B5FA2" opacity="1.000000" stroke="none" 
	d="
M644.845764,387.822205 
	C651.106262,380.082733 657.139954,372.616364 663.140808,365.190613 
	C670.058289,381.205383 656.109253,398.266907 633.804626,400.046356 
	C637.646301,395.800842 641.132629,391.948090 644.845764,387.822205 
z"/>
<path fill="#0B4989" opacity="1.000000" stroke="none" 
	d="
M724.523804,541.536499 
	C727.704407,547.316040 727.398254,551.724915 723.865173,554.994995 
	C720.239563,558.350708 713.219482,558.781982 708.973755,555.717957 
	C705.347717,553.101196 704.203491,549.383179 705.324219,545.138184 
	C706.511414,540.641541 710.882202,537.599915 716.113586,538.191223 
	C718.911255,538.507385 721.554443,540.189758 724.523804,541.536499 
z"/>
<path fill="#D0E9F5" opacity="1.000000" stroke="none" 
	d="
M305.017242,350.007812 
	C312.720276,350.003815 320.423279,349.999786 328.571686,350.479553 
	C329.365845,354.953705 329.714630,358.944061 330.063416,362.934387 
	C322.024994,362.950775 313.986572,362.967133 305.470490,362.571381 
	C305.000977,358.108765 305.009125,354.058289 305.017242,350.007812 
z"/>
<path fill="#9BCCE7" opacity="1.000000" stroke="none" 
	d="
M330.525940,362.939819 
	C329.714630,358.944061 329.365845,354.953705 329.043304,350.518616 
	C336.436279,350.041351 343.803009,350.008850 351.640503,350.069977 
	C352.086609,354.105072 352.061981,358.046478 352.056396,362.440613 
	C345.046448,362.910645 338.017487,362.927948 330.525940,362.939819 
z"/>
<path fill="#9BCCE7" opacity="1.000000" stroke="none" 
	d="
M341.011169,375.011108 
	C348.039886,374.971100 355.068634,374.931122 362.527832,375.383759 
	C362.668884,379.869476 362.379425,383.862579 362.089966,387.855652 
	C355.396393,387.878876 348.702850,387.902100 341.508759,387.511658 
	C341.009216,383.069031 341.010193,379.040070 341.011169,375.011108 
z"/>
<path fill="#D0E9F5" opacity="1.000000" stroke="none" 
	d="
M340.542297,374.984802 
	C341.010193,379.040070 341.009216,383.069031 341.045502,387.505798 
	C335.040222,387.936188 328.997650,387.958801 322.475037,387.556763 
	C321.660919,383.087250 321.326904,379.042389 320.992859,374.997559 
	C327.353027,374.984558 333.713226,374.971527 340.542297,374.984802 
z"/>
<path fill="#079EDB" opacity="1.000000" stroke="none" 
	d="
M412.777496,501.800049 
	C406.943146,501.203674 401.533386,500.661926 397.054199,500.213379 
	C397.314667,496.791809 397.538239,493.854645 397.812469,490.252197 
	C405.023804,492.346985 414.678619,488.812012 421.843048,498.056061 
	C418.823639,499.383392 416.012878,500.619019 412.777496,501.800049 
z"/>
<path fill="#079EDB" opacity="1.000000" stroke="none" 
	d="
M371.704315,494.062531 
	C368.539551,493.398834 365.784882,492.814636 362.829468,492.187866 
	C363.072937,490.495575 363.295380,488.949341 363.500275,487.525177 
	C368.870453,486.402252 374.309326,492.064636 379.314514,487.052124 
	C381.401154,489.427094 383.655304,491.992737 385.965271,494.621887 
	C383.389862,495.608337 380.209015,496.826721 378.246124,497.578583 
	C375.573486,496.080719 373.843933,495.111389 371.704315,494.062531 
z"/>
<path fill="#F8FCFD" opacity="1.000000" stroke="none" 
	d="
M304.554047,350.003601 
	C305.009125,354.058289 305.000977,358.108765 305.002625,362.576721 
	C303.016907,362.997101 301.021423,363.003204 299.025909,363.002380 
	C292.249084,362.999603 289.482452,357.947784 293.041656,351.800629 
	C293.557953,350.908936 295.024139,350.187286 296.116333,350.084564 
	C298.753845,349.836517 301.430176,350.001160 304.554047,350.003601 
z"/>
<path fill="#4FAADB" opacity="1.000000" stroke="none" 
	d="
M362.536316,387.887695 
	C362.379425,383.862579 362.668884,379.869476 362.993591,375.457275 
	C367.400146,374.999878 371.771362,374.961578 376.611450,374.979736 
	C375.284119,379.233337 373.488007,383.430450 371.415100,387.833832 
	C368.419800,387.999969 365.701263,387.959869 362.536316,387.887695 
z"/>
<path fill="#F8FCFD" opacity="1.000000" stroke="none" 
	d="
M320.532593,374.996826 
	C321.326904,379.042389 321.660919,383.087250 322.008087,387.561157 
	C319.855652,387.994232 317.690094,388.007172 315.524567,388.000488 
	C309.996033,387.983398 308.594482,386.276733 309.562897,380.805786 
	C309.850800,379.179626 310.068420,377.541016 310.457794,374.996094 
	C313.592316,374.996094 316.832275,374.996094 320.532593,374.996826 
z"/>
<path fill="#4FAADB" opacity="1.000000" stroke="none" 
	d="
M349.838867,488.026642 
	C347.219666,486.607880 342.862305,487.552704 342.924988,482.445831 
	C345.529083,483.056824 347.663086,483.344757 349.632111,484.076599 
	C351.801117,484.882751 353.454620,486.149200 349.838867,488.026642 
z"/>
<path fill="#4FAADB" opacity="1.000000" stroke="none" 
	d="
M388.613098,348.962891 
	C388.699341,349.193970 388.518738,349.469391 388.097931,349.819550 
	C388.020599,349.598633 388.183472,349.302917 388.613098,348.962891 
z"/>
<path fill="#F8FCFD" opacity="1.000000" stroke="none" 
	d="
M657.143921,608.173950 
	C646.995483,606.712769 642.026794,600.725952 642.933960,591.553345 
	C643.719604,583.608765 650.244873,578.449768 659.060547,578.803406 
	C667.695435,579.149780 673.535339,585.320129 673.415283,593.970215 
	C673.298950,602.355652 667.333862,607.712402 657.143921,608.173950 
z"/>
<path fill="#F8FCFD" opacity="1.000000" stroke="none" 
	d="
M448.445129,609.698730 
	C440.148285,612.909790 433.311249,611.439331 429.285156,605.834106 
	C424.756042,599.528564 425.002808,589.818420 429.842468,583.901367 
	C435.760284,576.666199 447.851227,577.322937 453.155151,585.167664 
	C458.493256,593.062927 456.623383,603.456543 448.445129,609.698730 
z"/>
<path fill="#F8FCFD" opacity="1.000000" stroke="none" 
	d="
M377.723022,591.703857 
	C378.365356,601.821106 375.277130,608.039001 368.577271,610.693726 
	C360.509979,613.890137 351.872833,610.063782 349.097839,602.064148 
	C345.730103,592.355957 350.062073,582.068909 358.637085,579.411438 
	C367.245148,576.743713 374.748413,581.434509 377.723022,591.703857 
z"/>
<path fill="#F8FCFD" opacity="1.000000" stroke="none" 
	d="
M579.010498,579.500610 
	C587.914795,578.138306 593.321533,580.304810 596.594238,586.237549 
	C599.950500,592.321777 599.318848,601.239990 594.957336,606.534790 
	C591.092957,611.226196 585.969543,612.673767 580.143066,611.401367 
	C573.949402,610.048706 570.306213,605.928955 569.082458,599.870605 
	C567.677185,592.913696 568.901978,586.568176 574.726318,581.820312 
	C575.861572,580.894897 577.322205,580.368591 579.010498,579.500610 
z"/>
</svg>